<?xml version="1.0" encoding="UTF-8"?>
<svg version="1.1" xmlns="http://www.w3.org/2000/svg" width="512" height="512">
<path d="M0 0 C17.64096343 14.3837693 29.79750373 32.32113148 35.375 54.5 C35.62685059 55.4585791 35.62685059 55.4585791 35.88378906 56.43652344 C37.44184429 63.2239908 37.14316977 70.07400954 37 77 C37.79059814 76.97905273 38.58119629 76.95810547 39.39575195 76.93652344 C43.03453464 76.85253722 46.67311243 76.80107912 50.3125 76.75 C52.17745117 76.69972656 52.17745117 76.69972656 54.08007812 76.6484375 C67.7885743 76.50451628 79.00444943 80.80677111 89.2578125 90.03125 C100.49542204 101.82433074 103.15553236 115.21631992 103.90332031 130.89160156 C103.97633581 132.30228383 104.05004915 133.71293012 104.12439728 135.12354279 C104.32571659 138.98135794 104.51718654 142.83960735 104.70697308 146.69800472 C104.91307844 150.85342477 105.12826291 155.00837583 105.34234619 159.16339111 C105.71111229 166.34427124 106.07410622 173.52542458 106.43334961 180.70678711 C106.95378655 191.10835521 107.48490739 201.50935837 108.01832485 211.91026783 C108.97311153 230.53363581 109.91502816 249.15763082 110.84844208 267.7820816 C110.94794916 269.76748164 111.04745935 271.75288152 111.14697266 273.73828125 C111.19633233 274.72312547 111.245692 275.70796969 111.29654741 276.72265768 C111.70527998 284.87183062 112.11780661 293.02080882 112.53096175 301.16975856 C112.9370879 309.18404521 113.3403234 317.1984741 113.74138474 325.21301579 C113.97761767 329.93249663 114.21500084 334.65191203 114.45549774 339.37117767 C114.67882889 343.75499998 114.89853784 348.13898951 115.11556053 352.52312851 C115.1948828 354.11338904 115.27545193 355.70358803 115.3574543 357.29371262 C117.40248067 397.02064073 117.40248067 397.02064073 104.25 413.75 C96.94618112 421.68149082 85.76822443 428.49289261 74.77294207 429.12880117 C73.54557054 429.13148402 73.54557054 429.13148402 72.29340363 429.13422108 C71.34535622 429.13867892 70.39730882 429.14313676 69.4205327 429.14772969 C67.862781 429.14745315 67.862781 429.14745315 66.27355957 429.14717102 C65.16788242 429.15084771 64.06220527 429.1545244 62.92302275 429.1583125 C59.20453655 429.16935755 55.48607828 429.17319461 51.76757812 429.17700195 C49.10668776 429.18326605 46.44580038 429.18990005 43.78491211 429.19691467 C35.78942163 429.21666698 27.79392992 429.22674459 19.79842114 429.23564246 C16.03036241 429.24002815 12.26230507 429.2453943 8.49424744 429.25063133 C-4.03715473 429.26764382 -16.56855602 429.28213641 -29.09996796 429.28938007 C-32.35115052 429.29128988 -35.60233308 429.29321022 -38.85351562 429.29516602 C-40.06557186 429.29589163 -40.06557186 429.29589163 -41.30211407 429.2966319 C-54.3820464 429.30492627 -67.46188711 429.33025306 -80.54177946 429.36274669 C-93.98007334 429.39585757 -107.41832072 429.41383255 -120.8566556 429.41702431 C-128.39789798 429.41918589 -135.93900681 429.42788255 -143.48020935 429.45348549 C-149.90492383 429.47524778 -156.32947232 429.48321594 -162.75421947 429.47351871 C-166.02871288 429.46898961 -169.30279457 429.47298357 -172.57725525 429.49028015 C-176.1376859 429.50803014 -179.69725833 429.50087648 -183.25769043 429.48774719 C-184.27834579 429.49871644 -185.29900115 429.50968568 -186.35058546 429.52098733 C-199.10998925 429.40798701 -210.40557343 424.61354173 -219.99609375 416.26171875 C-231.32452471 404.47914134 -234.27875617 390.08222247 -234.05387568 374.37992477 C-233.85848535 365.74867842 -233.35481469 357.12524576 -232.91430664 348.50390625 C-232.79738666 346.16154536 -232.68079317 343.81916816 -232.5644989 341.47677612 C-232.24965483 335.15437112 -231.93018459 328.8322077 -231.60978246 322.51008224 C-231.308154 316.5454187 -231.0098609 310.58058865 -230.71147233 304.61576235 C-230.12000325 292.79479507 -229.52502627 280.97400703 -228.92797852 269.15332031 C-228.35039403 257.71789257 -227.77507382 246.28235405 -227.20239258 234.84667969 C-227.16711403 234.14222265 -227.13183549 233.43776561 -227.0954879 232.71196139 C-227.02440514 231.2925194 -226.95332253 229.8730774 -226.88224008 228.45363539 C-226.84716387 227.75320894 -226.81208765 227.05278248 -226.77594852 226.33113098 C-226.72345681 225.28291655 -226.72345681 225.28291655 -226.66990465 224.21352607 C-226.0885034 212.60519088 -225.50491907 200.99696532 -224.92124248 189.38874435 C-224.72331821 185.45067091 -224.52568032 181.51258317 -224.32808113 177.57449341 C-224.01658132 171.36912073 -223.70375207 165.16381635 -223.389925 158.95856094 C-223.27543292 156.69116423 -223.16134593 154.42374702 -223.04771042 152.15630722 C-222.71078193 145.43684719 -222.36264411 138.71812044 -222 132 C-221.95944764 131.2262566 -221.91889528 130.4525132 -221.87711406 129.65532303 C-221.76679019 127.58754386 -221.64796996 125.52046687 -221.52561951 123.45336914 C-221.46262382 122.35150772 -221.39962812 121.2496463 -221.33472347 120.11439514 C-219.92568946 107.00420409 -213.7849352 95.31207943 -203.671875 86.85546875 C-195.34475664 81.07274767 -186.72435259 76.8557984 -176.484375 76.90234375 C-175.23398438 76.90556641 -173.98359375 76.90878906 -172.6953125 76.91210938 C-170.74238281 76.92467773 -170.74238281 76.92467773 -168.75 76.9375 C-167.43257813 76.94201172 -166.11515625 76.94652344 -164.7578125 76.95117188 C-161.50516259 76.96295684 -158.25260416 76.97940989 -155 77 C-155.01812744 76.08653809 -155.03625488 75.17307617 -155.05493164 74.23193359 C-155.33520223 49.90444649 -145.96697282 28.10897271 -129.3359375 10.37109375 C-94.83017582 -24.65398542 -39.47352935 -30.18232772 0 0 Z M-102 30 C-112.48052985 40.14088305 -119.13438183 51.67190914 -122 66 C-122 69.63 -122 73.26 -122 77 C-80.42 77 -38.84 77 4 77 C4 58.45595052 -2.15752334 43.99904672 -15.1640625 30.8046875 C-39.97449116 7.74764602 -76.77632111 7.56687179 -102 30 Z M-147.75 145.25 C-157.11164065 156.69200524 -155.03594333 174.50728643 -153.78173828 188.42138672 C-153.23141725 192.40710371 -152.24335196 196.17970082 -151 200 C-150.6596875 201.06476563 -150.319375 202.12953125 -149.96875 203.2265625 C-141.02665087 228.54237017 -122.89531961 248.10097835 -99.046875 260.140625 C-76.16406009 271.05944144 -49.69141797 271.36981481 -26 263 C-0.78795968 252.72338274 19.02344987 233.97299725 29.90625 208.8984375 C34.41441757 196.95179345 36.18038871 185.86693409 36.1875 173.1875 C36.19974609 172.04990234 36.21199219 170.91230469 36.22460938 169.74023438 C36.28062456 157.13322146 36.28062456 157.13322146 31 146 C27.10393347 142.88314677 24.01478368 141.20468505 19 141 C13.99245795 141.96636776 10.61866676 143.38133324 7 147 C4.22931576 151.57799482 3.66924077 154.81380073 3.84765625 160.12890625 C3.87588983 161.50845868 3.90387642 162.88801617 3.93164062 164.26757812 C3.99323386 166.40435198 4.06173108 168.54066515 4.13696289 170.67700195 C4.70977169 188.32320856 -0.10700134 203.34694442 -11.75 216.875 C-22.5370604 228.10268163 -37.59876993 235.73947892 -53.26953125 236.30078125 C-73.88116906 236.52163995 -90.49507264 232.32136126 -105.6328125 217.6328125 C-119.21370124 202.52799565 -122.45438204 186.39951798 -121.73266602 166.8359375 C-121.2090747 155.98805717 -121.2090747 155.98805717 -125.67480469 146.37670898 C-132.01726989 139.78769622 -140.71259807 139.49212569 -147.75 145.25 Z " fill="#0CADF5" transform="translate(315,51)"/>
<path d="M0 0 C17.64096343 14.3837693 29.79750373 32.32113148 35.375 54.5 C35.62685059 55.4585791 35.62685059 55.4585791 35.88378906 56.43652344 C37.51195818 63.52943296 37 69.28303107 37 77 C26.11 77 15.22 77 4 77 C3.01 69.08 3.01 69.08 2 61 C-2.37260265 44.77119279 -12.76800402 31.70894531 -26.875 22.75 C-41.68965964 14.40115659 -58.42043428 12.05248435 -75 16 C-92.13529122 20.89891901 -105.90999835 31.87043186 -114.6875 47.421875 C-119.69192176 57.25198917 -120.57290194 65.58321552 -122 77 C-132.89 77 -143.78 77 -155 77 C-155 48.11504022 -145.05897586 26.08917481 -124.6640625 5.66015625 C-90.85252715 -26.34590876 -36.58774782 -27.97579576 0 0 Z " fill="#1E387A" transform="translate(315,51)"/>
</svg>
